<?xml version="1.0" encoding="UTF-8"?>
<svg id="Layer_1" data-name="Layer 1" xmlns="http://www.w3.org/2000/svg" viewBox="0 0 150 24.52">
  <path d="m1.97,18.59V3.28h10.17v2.97h-6.76v2.95h5.66v2.98h-5.66v3.43h6.76v2.97H1.97Z"/>
  <path d="m18.29,12.73v5.86h-3.41V7.52h3.41v1.79c.36-.71.82-1.23,1.37-1.54.55-.31,1.16-.47,1.83-.47,1.08,0,1.94.34,2.59,1.02.65.68.97,1.67.97,2.96v7.31h-3.41v-6.3c0-.69-.12-1.19-.35-1.52-.23-.33-.63-.49-1.18-.49-.32,0-.62.08-.9.24-.28.16-.5.42-.67.78-.17.36-.25.83-.25,1.43Z"/>
  <path d="m31.36,12.73v5.86h-3.41V7.52h3.41v1.79c.36-.71.82-1.23,1.37-1.54.55-.31,1.16-.47,1.83-.47,1.08,0,1.94.34,2.59,1.02.65.68.97,1.67.97,2.96v7.31h-3.41v-6.3c0-.69-.12-1.19-.35-1.52-.23-.33-.63-.49-1.18-.49-.32,0-.62.08-.9.24-.28.16-.5.42-.67.78-.17.36-.25.83-.25,1.43Z"/>
  <path d="m42.74,5.93c-.61,0-1.1-.17-1.48-.5-.37-.34-.56-.77-.56-1.31s.19-1,.56-1.32.86-.49,1.48-.49,1.1.16,1.48.49c.37.33.56.77.56,1.32s-.19.98-.56,1.31c-.37.33-.86.5-1.48.5Zm-1.71,12.66V7.52h3.41v11.07h-3.41Z"/>
  <path d="m52.23,18.81c-1.6,0-2.89-.43-3.85-1.3-.96-.87-1.44-2.11-1.44-3.73v-1.42c0-1.63.48-2.88,1.44-3.75.96-.87,2.25-1.3,3.85-1.3s2.91.43,3.87,1.3c.96.87,1.44,2.12,1.44,3.75v1.42c0,1.62-.48,2.86-1.44,3.73-.96.87-2.25,1.3-3.87,1.3Zm0-8.53c-.61,0-1.06.2-1.36.6s-.44.94-.44,1.63v1.12c0,.67.15,1.21.44,1.61s.74.6,1.36.6,1.09-.2,1.38-.6c.29-.4.44-.94.44-1.61v-1.12c0-.68-.15-1.23-.44-1.63-.29-.4-.75-.6-1.38-.6Z"/>
  <path d="m73.58,18.59h-3.78l-5.01-15.31h3.76l3.24,10.96,3.19-10.96h3.61l-5.01,15.31Z"/>
  <path d="m82.09,5.93c-.61,0-1.1-.17-1.48-.5-.37-.34-.56-.77-.56-1.31s.19-1,.56-1.32.86-.49,1.48-.49,1.1.16,1.48.49c.37.33.56.77.56,1.32s-.19.98-.56,1.31c-.37.33-.86.5-1.48.5Zm-1.71,12.66V7.52h3.41v11.07h-3.41Z"/>
  <path d="m90.97,9.89c-.41,0-.7.07-.88.21-.18.14-.26.35-.26.62,0,.29.08.5.24.63.16.13.42.23.79.31l1.44.26c.92.16,1.65.38,2.19.64.54.27.92.62,1.15,1.05.23.43.34.98.34,1.65,0,1.2-.4,2.08-1.2,2.67-.8.58-2.02.88-3.65.88-1.47,0-2.63-.3-3.47-.9-.84-.6-1.34-1.52-1.52-2.76h3.24c.12.35.29.62.54.81.24.19.65.28,1.24.28.55,0,.93-.07,1.13-.22.2-.15.3-.36.3-.63,0-.19-.03-.34-.1-.45s-.17-.2-.32-.26-.36-.12-.63-.16l-1.71-.28c-1.11-.19-1.95-.54-2.53-1.05-.58-.51-.86-1.28-.86-2.3,0-1.12.38-2,1.15-2.64.77-.63,1.88-.95,3.36-.95,1.65,0,2.85.31,3.6.94s1.16,1.54,1.21,2.73h-3.37c-.06-.36-.19-.64-.39-.82s-.54-.27-1.01-.27Z"/>
  <path d="m103,15.84c.39,0,.69-.08.9-.25.2-.17.35-.4.44-.69h3.3c-.06.76-.3,1.43-.71,2.02-.42.59-.97,1.05-1.66,1.39s-1.49.5-2.39.5c-1.5,0-2.71-.43-3.63-1.3-.92-.87-1.38-2.11-1.38-3.73v-1.42c0-1.09.21-2.02.63-2.77.42-.75,1.01-1.32,1.77-1.71.76-.39,1.63-.58,2.62-.58,1.46,0,2.58.37,3.37,1.1.79.74,1.21,1.72,1.27,2.96h-3.37c-.06-.33-.19-.6-.39-.8-.2-.2-.5-.29-.88-.29-.54,0-.93.19-1.17.56s-.36.94-.36,1.72v1.01c0,.76.14,1.33.42,1.71.28.38.69.57,1.22.57Z"/>
  <path d="m114.61,18.81c-1.6,0-2.89-.43-3.85-1.3-.96-.87-1.44-2.11-1.44-3.73v-1.42c0-1.63.48-2.88,1.44-3.75.96-.87,2.25-1.3,3.85-1.3s2.91.43,3.87,1.3c.96.87,1.44,2.12,1.44,3.75v1.42c0,1.62-.48,2.86-1.44,3.73-.96.87-2.25,1.3-3.87,1.3Zm0-8.53c-.61,0-1.06.2-1.36.6s-.44.94-.44,1.63v1.12c0,.67.15,1.21.44,1.61s.74.6,1.36.6,1.09-.2,1.38-.6c.29-.4.44-.94.44-1.61v-1.12c0-.68-.15-1.23-.44-1.63-.29-.4-.75-.6-1.38-.6Z"/>
  <path d="m125.83,12.73v5.86h-3.41V7.52h3.41v1.79c.36-.71.82-1.23,1.37-1.54.55-.31,1.16-.47,1.83-.47,1.08,0,1.94.34,2.59,1.02.65.68.97,1.67.97,2.96v7.31h-3.41v-6.3c0-.69-.12-1.19-.35-1.52s-.63-.49-1.18-.49c-.32,0-.62.08-.9.24-.28.16-.5.42-.67.78-.17.36-.25.83-.25,1.43Z"/>
  <path d="m142.56,15.84v2.87h-2.21c-1.49,0-2.57-.35-3.25-1.04s-1.02-1.83-1.02-3.42v-3.85h-1.6v-2.87h1.6v-3.15h3.41v3.15h3.06v2.87h-3.06v3.85c0,.45.11.83.33,1.14.22.31.63.46,1.25.46h1.49Z"/>
  <path d="m146.76,5.93c-.61,0-1.1-.17-1.48-.5-.37-.34-.56-.77-.56-1.31s.19-1,.56-1.32.86-.49,1.48-.49,1.1.16,1.48.49c.37.33.56.77.56,1.32s-.19.98-.56,1.31c-.37.33-.86.5-1.48.5Zm-1.71,12.66V7.52h3.41v11.07h-3.41Z"/>
</svg>