<?xml version="1.0" encoding="utf-8"?>
<!-- Generator: Adobe Illustrator 26.2.1, SVG Export Plug-In . SVG Version: 6.00 Build 0)  -->
<svg version="1.1" id="Livello_1" xmlns="http://www.w3.org/2000/svg" xmlns:xlink="http://www.w3.org/1999/xlink" x="0px" y="0px"
	 viewBox="0 0 2216.1 1072.1" style="enable-background:new 0 0 2216.1 1072.1;" xml:space="preserve">
<style type="text/css">
	.st0{fill:#FFFFFF;}
	.st1{fill:#F8F7FA;}
	.st2{fill:#06062D;}
	.st3{fill:#00FFEB;}
	.st4{opacity:0.5;}
	.st5{opacity:0.5;fill:#463FFF;}
	.st6{fill:#463FFF;}
	.st7{fill:#020E9D;}
	.st8{opacity:0.5;fill:#00FFEB;}
	.st9{opacity:0.5;fill:#FFFFFF;}
</style>
<g>
	<g>
		<path class="st1" d="M1914.3,495.2c-8.9-15.9-21.8-28.7-38.4-37.9c-16.6-9.2-36.6-13.9-59.4-13.9c-22.6,0-42.7,4.7-59.9,13.9
			c-17.3,9.2-30.8,22-40.2,37.9c-9.5,16-14.3,34.4-14.3,54.6c0,22.4,4.9,41.9,14.5,57.9c9.6,16,23.1,28.3,40.2,36.8
			c17.2,8.5,37,12.8,58.8,12.8c23.3,0,43.6-4.8,60.3-14.1c16.6-9.4,29.5-22.3,38.4-38.4c8.9-16.2,13.4-34.7,13.4-54.9
			C1927.7,529.7,1923.2,511.3,1914.3,495.2z M1861.6,580.6c-4.3,9.1-10.5,16.3-18.4,21.7c-8,5.3-17.6,8-28.5,8c-9.9,0-19-2.7-27-8
			c-8-5.3-14.3-12.6-18.9-21.6c-4.6-9.1-6.9-19.3-6.9-30.3c0-11.3,2.3-21.6,6.9-30.5c4.6-8.9,10.9-16.1,18.9-21.4c8-5.3,17.1-8,27-8
			c10.9,0,20.5,2.7,28.5,8c8,5.3,14.2,12.5,18.4,21.4c4.3,8.8,6.4,19.1,6.4,30.4C1868,561.4,1865.8,571.6,1861.6,580.6z"/>
		<path class="st1" d="M1200.3,452.5l-50.8,0c-0.8,0-1.5,0.5-1.7,1.2l-53.8,166.1c-0.5,1.6-1.9,2.7-3.6,2.7c-1.7,0.1-3.1-1-3.7-2.5
			l-60.9-166.4c-0.3-0.7-0.9-1.2-1.7-1.2l-55.6-0.1c-0.6,0-1.1,0.3-1.5,0.8c-0.3,0.5-0.4,1.1-0.2,1.7l89.3,225.2
			c1,2.5,1.1,5.3,0.3,7.8c-3.6,11.6-7.1,20.9-10.5,27.6c-3.8,7.6-7.7,12.9-11.8,16c-4.2,3.1-9.4,4.7-15.5,4.7l-0.6,0
			c-3.1-0.3-7-0.8-11.9-1.6c-1.9-0.3-5.3-1-10-1.9c-0.1,0-0.2,0-0.4,0c-0.4,0-0.8,0.1-1.1,0.4c-0.4,0.3-0.7,0.8-0.7,1.4l0,40.9
			c0,1.5,1,2.9,2.4,3.4c6.3,2.2,10.8,3.6,13.7,4c4.8,0.7,9.4,1.1,14,1.1c14.4,0,28.3-2.6,38.3-7.1c10.4-4.8,19.3-11.3,26.4-19.4
			c7.1-8.2,12.5-17.5,16-27.5l97.2-274.7c0.2-0.6,0.1-1.1-0.2-1.6C1201.4,452.8,1200.9,452.5,1200.3,452.5z"/>
		<path class="st1" d="M1649.4,597.3c-0.5-0.3-1-0.3-1.5-0.1c-2.9,1.2-6.1,2.2-9.3,2.9c-5.6,1.4-11.6,2.1-17.6,2.1
			c-7.4,0-13.4-2.4-17.9-7.1c-4.5-4.7-6.7-13.3-6.7-26.4V291.1c0-1.4-1.1-2.5-2.5-2.5h-54.2c-1.4,0-2.5,1.1-2.5,2.5v301.4
			c0,18.9,5.3,33.8,15.9,44.1c10.6,10.3,25.9,15.5,45.4,15.5c9.5,0,20.1-1.1,31.4-3.3c9.8-1.9,18.7-4.6,26.4-8c0.8-0.3,1.2-1.1,1-2
			l-7-40.2C1650.2,598,1649.8,597.5,1649.4,597.3z"/>
		<path class="st1" d="M1003.3,387.7c0.3-0.5,0.4-1.1,0.2-1.6l-12.4-33.3c-9.2-24.9-24.1-42.8-44.2-53.2c-7-3.6-14.5-6-22.2-7.1
			l-0.9-0.2c-9.3-1.7-18.8-2.6-28.4-2.6c-0.5,0-1,0-1.6,0c-0.4,0-0.9,0-1.3,0c-0.7,0-1.3-0.1-1.8-0.1c-0.2,0-0.4,0-0.6,0
			c-28.4,0-50.2,8.2-65,24.5c-14.8,16.3-22.4,37.8-22.4,63.7v271.3c0,1.4,1.1,2.5,2.5,2.5h54.4c1.4,0,2.5-1.1,2.5-2.5V508
			c0-2.1,1.7-3.9,3.9-3.9h68.6c0.6,0,1.1-0.3,1.5-0.8c0.3-0.5,0.4-1.1,0.2-1.7l-18.7-47.2c-0.5-1.3-1.8-2.2-3.2-2.2H866
			c-2.1,0-3.9-1.7-3.9-3.9v-68.6c0-14.5,3.3-25.3,9.7-32.2c6.5-6.9,15-10.3,25.3-10.3c0.7,0,5.1,0,6.9,0.3c4.1,0,8.4,1,12.5,2.8
			c8.9,3.8,16.3,12.6,22.2,26.2l8.5,19.8c0.6,1.3,1.8,2.1,3.2,2.1h51.4C1002.4,388.5,1003,388.2,1003.3,387.7z"/>
		<path class="st1" d="M1436.3,455.2c-14.2-8.1-30.1-12.2-47.2-12.2c-16.7,0-31.8,2.3-44.9,6.9c-13,4.5-23.5,10.2-31.3,16.8
			c-0.6,0.6-1.4,0.9-2.2,0.9c-1.6,0-3-1.3-3-3V290.8c0-1.4-1.1-2.4-2.4-2.4h-53.9c-1.4,0-2.4,1.1-2.4,2.4v358.5
			c0,1.4,1.1,2.4,2.4,2.4h54.4c1.4,0,2.4-1.1,2.4-2.4v-14.7c0-1.8,1.5-3.3,3.3-3.3c0.6,0,1.1,0.1,1.5,0.4h0.1l0.3,0.3
			c7.3,6.9,15.7,12.6,24.8,17.1c11.2,5.5,25.3,8.3,42,8.3c18.1,0,35.3-4.4,50.9-13.2c15.7-8.7,28.4-21.4,37.9-37.7
			c9.5-16.3,14.3-36,14.3-58.4c0-22.4-4.4-41.7-13-57.3C1461.9,475.3,1450.4,463.3,1436.3,455.2z M1415.3,578.7
			c-5.3,9.2-12.4,16.6-21,21.8c-8.6,5.2-18.2,7.9-28.5,7.9c-8.9,0-17-1.2-24.2-3.7c-7.2-2.5-13.7-6.1-19.1-10.9
			c-5.2-4.5-9.7-10.3-13.6-17.1c-0.4-0.7-0.6-1.6-0.6-2.5v-50.1c0-0.8,0.1-1.4,0.4-2.1c3-6.9,7.1-12.9,12.3-17.7
			c5.5-5.1,12.1-9.1,19.8-11.9c7.7-2.8,16.1-4.2,24.9-4.2c10.2,0,19.8,2.6,28.5,7.7c8.7,5,15.8,12.1,21,21
			c5.2,8.9,7.9,19.2,7.9,30.7C1423.2,559.1,1420.6,569.5,1415.3,578.7z"/>
	</g>
</g>
<g>
	<g>
		<path class="st3" d="M576.7,431.2c0,30-21.2,55-49.5,60.9c-0.1,0-0.2,0-0.2,0c-4.1,0.8-8.3,1.3-12.5,1.3
			c-34.4,0-62.2-27.8-62.2-62.2c0-4.3,0.4-8.5,1.3-12.5c0-0.1,0-0.1,0-0.2c5.9-28.2,30.9-49.5,60.9-49.5
			C548.9,369,576.7,396.9,576.7,431.2z"/>
		<path class="st3" d="M412.8,595.2c0,4.3-0.4,8.5-1.3,12.5c0,0,0,0.1,0,0.2c-5.9,28.2-30.9,49.5-60.9,49.5
			c-34.4,0-62.2-27.9-62.2-62.2c0-29.7,20.8-54.6,48.7-60.7c0.6-0.2,1.2-0.3,1.8-0.4c3.8-0.7,7.7-1.1,11.7-1.1
			C384.9,532.9,412.8,560.8,412.8,595.2z"/>
	</g>
	<circle class="st3" cx="331.5" cy="412.1" r="43.1"/>
	<circle class="st3" cx="533.6" cy="614.3" r="43.1"/>
	<path class="st8" d="M533.6,490.7c-62,12.8-110.8,61.6-123.6,123.6c0.9-4.4,1.3-8.8,1.3-13.4c0-36.8-29.8-66.6-66.5-66.6
		c-4.3,0-8.4,0.4-12.5,1.2c61.5-13.1,109.9-61.7,122.6-123.4c-0.9,4.4-1.3,8.8-1.3,13.4c0,36.7,29.8,66.5,66.5,66.5
		C524.7,492,529.2,491.6,533.6,490.7z"/>
</g>
</svg>
