<?xml version="1.0" encoding="utf-8"?>
<!-- Generator: Adobe Illustrator 26.2.1, SVG Export Plug-In . SVG Version: 6.00 Build 0)  -->
<svg version="1.1" id="Livello_1" xmlns="http://www.w3.org/2000/svg" xmlns:xlink="http://www.w3.org/1999/xlink" x="0px" y="0px"
	 viewBox="0 0 2220.2 1078.1" style="enable-background:new 0 0 2220.2 1078.1;" xml:space="preserve">
<style type="text/css">
	.st0{fill:#FFFFFF;}
	.st1{fill:#F8F7FA;}
	.st2{fill:#06062D;}
	.st3{fill:#00FFEB;}
	.st4{opacity:0.5;}
	.st5{opacity:0.5;fill:#463FFF;}
	.st6{fill:#463FFF;}
	.st7{fill:#020E9D;}
	.st8{opacity:0.5;fill:#00FFEB;}
	.st9{opacity:0.5;fill:#FFFFFF;}
</style>
<g>
	<g>
		<path class="st7" d="M1438.9,455.4c-14.7-8.4-30.9-12.7-48.7-12.7c-17.2,0-32.5,2.3-45.9,7c-11.2,3.9-20.5,8.6-28,14
			c-1.8,1.3-4.3,0-4.3-2.2l0-169.5c0-2.1-1.7-3.8-3.8-3.8h-57.5c-2.1,0-3.8,1.7-3.8,3.8V654c0,2.1,1.7,3.8,3.8,3.8h58
			c2.1,0,3.8-1.7,3.8-3.8v-10.5c0-2.4,2.8-3.7,4.6-2.2c6.3,5.3,13.3,9.8,20.9,13.5c11.7,5.8,26.2,8.7,43.4,8.7
			c18.8,0,36.2-4.5,52.5-13.6c16.2-9.1,29.3-22,39.1-38.9c9.8-16.9,14.8-36.9,14.8-60c0-23.1-4.5-42.7-13.3-58.8
			C1465.4,476.1,1453.6,463.8,1438.9,455.4z M1413.6,580c-5,8.8-11.6,15.6-19.9,20.6c-8.3,5-17.3,7.5-26.9,7.5
			c-8.4,0-16.1-1.2-23-3.5c-6.9-2.3-12.9-5.8-18-10.3c-4.9-4.3-9.2-9.7-12.8-16.2c-0.3-0.6-0.5-1.3-0.5-1.9v-48.3
			c0-0.5,0.1-1.1,0.3-1.6c2.8-6.5,6.7-12.2,11.6-16.8c5.2-4.8,11.4-8.6,18.8-11.3c7.3-2.7,15.2-4,23.7-4c9.7,0,18.7,2.4,26.9,7.3
			c8.3,4.8,14.9,11.5,19.9,19.9c5,8.4,7.5,18.1,7.5,29C1421.1,561.4,1418.6,571.3,1413.6,580z"/>
		<path class="st7" d="M1918.1,496.6c-9.2-16.6-22.4-29.6-39.6-39.1c-17.2-9.5-37.5-14.3-60.9-14.3c-23.1,0-43.6,4.8-61.4,14.3
			c-17.8,9.5-31.6,22.6-41.5,39.1c-9.8,16.6-14.8,35.3-14.8,56.2c0,23.1,5,43,15,59.5c10,16.6,23.8,29.2,41.5,38
			c17.6,8.7,37.7,13.1,60.2,13.1c24.1,0,44.7-4.8,61.9-14.5c17.2-9.7,30.4-22.9,39.6-39.6c9.2-16.7,13.8-35.5,13.8-56.5
			C1931.9,531.9,1927.3,513.2,1918.1,496.6z M1859.7,582.1c-4,8.6-9.8,15.4-17.3,20.4c-7.5,5-16.4,7.5-26.7,7.5
			c-9.4,0-17.8-2.5-25.3-7.5c-7.5-5-13.4-11.8-17.8-20.4c-4.4-8.6-6.6-18.2-6.6-28.8c0-10.9,2.2-20.6,6.6-29
			c4.4-8.4,10.3-15.1,17.8-20.2c7.5-5,15.9-7.5,25.3-7.5c10.3,0,19.2,2.5,26.7,7.5c7.5,5,13.3,11.7,17.3,20.2
			c4.1,8.4,6.1,18.1,6.1,29C1865.8,563.9,1863.8,573.5,1859.7,582.1z"/>
		<path class="st7" d="M1087.6,613.3l-58.1-158.7c-0.6-1.5-2-2.5-3.6-2.5l-58-0.1c-2.7,0-4.6,2.7-3.6,5.2l89.3,225.2
			c1.1,2.8,1.3,5.9,0.3,8.8c-3.4,10.7-6.7,19.3-9.8,25.6c-3.5,7.1-7.2,12.1-10.8,14.9c-3.6,2.7-8.2,4.1-13.6,4.1c-0.1,0-0.2,0-0.3,0
			c-3.1-0.3-6.9-0.8-11.7-1.6c-2.8-0.5-8.1-1.5-11.8-2.3c-2.1-0.4-4,1.2-4,3.2l0,44.4c0,1.9,1.2,3.5,2.9,4.2
			c5.5,2,11.7,4.1,15.8,4.7c5,0.8,9.7,1.1,14.5,1.1c14.8,0,29.2-2.7,39.6-7.4c10.8-5,20.1-11.8,27.4-20.2c7.4-8.5,13-18.2,16.6-28.6
			l97.7-276.3c0.9-2.4-0.9-5-3.5-5l-53.3,0c-1.7,0-3.1,1.1-3.6,2.6l-51.2,158.3C1093.7,616.7,1088.9,616.8,1087.6,613.3z"/>
		<path class="st7" d="M1638.8,599.9c-5.4,1.3-11,2-16.9,2c-6.5,0-11.7-2-15.6-6.1c-3.9-4.1-5.9-12.2-5.9-24.3V292.2
			c0-2.1-1.7-3.8-3.8-3.8h-57.8c-2.1,0-3.8,1.7-3.8,3.8v303.2c0,19.9,5.6,35.4,16.9,46.3c11.3,11,27.1,16.4,47.6,16.4
			c9.8,0,20.5-1.1,32-3.4c10.1-2,19.2-4.8,27.2-8.3c2-0.9,3.1-3,2.7-5.2l-7.3-41.7c-0.4-2.4-3-3.8-5.2-2.9
			C1645.8,598,1642.5,599.1,1638.8,599.9z"/>
		<path class="st7" d="M994.1,354.6c-9.6-25.8-24.8-44-45.7-54.9c-7.3-3.8-15.1-6.3-23.2-7.5c0,0-0.1,0-0.1,0
			c-9.2-1.8-19.1-2.8-29.6-2.8c-1,0-2,0-3.1,0c-0.8,0-1.5,0-2.2,0c-29.4,0-51.8,8.5-67.2,25.5c-15.5,17-23.2,39-23.2,65.8v69.4
			c0,1.3,0,61.6,0,62.9V654c0,2.1,1.7,3.8,3.8,3.8h58c2.1,0,3.8-1.7,3.8-3.8V514c0-2.1,1.7-3.8,3.8-3.8h69.1c2.1,0,3.5-2.1,2.8-4.1
			l-20.3-51.2c-0.7-1.7-2.4-2.9-4.2-2.9h-47.3c-2.1,0-3.8-1.7-3.8-3.8v-65.5c0-13.7,3-23.7,8.9-30c5.9-6.2,13.6-9.4,23-9.4
			c1.3,0,5.1,0.1,6.5,0.2c4,0,7.9,0.9,11.7,2.5c8.1,3.5,15,11.7,20.6,24.6c0,0.1,0.1,0.2,0.1,0.3l2.9,6.8l5.9,13.9
			c0.7,1.7,2.4,2.8,4.3,2.8h54.3c2.7,0,4.5-2.7,3.6-5.2L994.1,354.6z"/>
	</g>
	<g>
		<path class="st5" d="M522.9,504.4c-53.4,10.9-95.4,53.4-105.6,107c0.9-4.2,1.3-8.6,1.3-13.1c0-36-29.2-65.1-65.1-65.1
			c-4.5,0-8.9,0.5-13.1,1.3c53.7-10.2,96.1-52.2,107-105.6c-0.7,3.7-1,7.5-1,11.3c0,36,29.2,65.2,65.2,65.2
			C515.4,505.4,519.2,505,522.9,504.4z"/>
		<path class="st6" d="M576.7,440.2c0,24.5-13.5,45.8-33.5,56.9c-5.2,3-11,5.2-17,6.6c-0.1,0-0.2,0-0.3,0c-0.9,0.2-1.9,0.4-2.9,0.6
			c0,0-0.1,0-0.2,0c-3.7,0.7-7.5,1-11.3,1c-36,0-65.2-29.2-65.2-65.2c0-3.9,0.3-7.6,1-11.3c0,0,0-0.1,0-0.2c0.2-0.9,0.4-1.9,0.6-2.9
			c0-0.1,0-0.2,0-0.3c1.4-6,3.6-11.8,6.6-17c11.1-20,32.4-33.5,56.9-33.5C547.6,375.1,576.7,404.2,576.7,440.2z"/>
		<path class="st6" d="M418.6,598.3c0,4.5-0.5,8.9-1.3,13.1c-1.3,6.6-3.7,12.8-6.9,18.5c-11.1,20-32.4,33.5-56.9,33.5
			c-36,0-65.1-29.1-65.1-65.1c0-24.5,13.5-45.8,33.5-56.9c5.7-3.2,11.9-5.6,18.5-6.9c4.2-0.9,8.6-1.3,13.1-1.3
			C389.5,533.1,418.6,562.3,418.6,598.3z"/>
		<circle class="st6" cx="335" cy="421.7" r="46.6"/>
		<circle class="st6" cx="530.1" cy="616.8" r="46.6"/>
	</g>
</g>
</svg>
